<svg width="182" height="68" viewBox="0 0 182 68" fill="none" xmlns="http://www.w3.org/2000/svg">
<path d="M31.92 42V30.096C31.92 28.624 31.968 27.12 32.064 25.584C32.192 24.016 32.32 22.704 32.448 21.648C32.576 20.592 32.656 19.92 32.688 19.632H32.496L26.4 42H18.096L11.952 19.68H11.76C11.792 19.968 11.872 20.64 12 21.696C12.16 22.72 12.304 24.016 12.432 25.584C12.56 27.12 12.624 28.624 12.624 30.096V42H2.88V8.976H17.856L22.848 28.032H23.04L27.984 8.976H42.432V42H31.92ZM48.5441 13.68V7.2H58.0961V13.68H48.5441ZM48.5441 42V16.656H58.0961V42H48.5441ZM81.6645 16.08C84.6085 16.08 86.8165 16.896 88.2885 18.528C89.7605 20.16 90.4965 22.512 90.4965 25.584V42H80.9445V26.736C80.9445 25.648 80.6565 24.784 80.0805 24.144C79.5365 23.472 78.7525 23.136 77.7285 23.136C76.5445 23.136 75.5845 23.52 74.8485 24.288C74.1125 25.056 73.7445 26 73.7445 27.12V42H64.1925V16.656H72.0165L72.6405 20.496C73.6325 19.152 74.9285 18.08 76.5285 17.28C78.1605 16.48 79.8725 16.08 81.6645 16.08ZM96.5441 13.68V7.2H106.096V13.68H96.5441ZM96.5441 42V16.656H106.096V42H96.5441ZM141.089 42H129.953L125.153 34.032H124.961L120.113 42H109.505L119.249 28.56L110.465 16.656H121.697L125.729 23.376H125.921L129.953 16.656H140.513L131.585 28.8L141.089 42Z" fill="white"/>
<path d="M107.446 65.168C105.943 65.168 104.767 64.7573 103.918 63.936C103.078 63.1147 102.658 61.8687 102.658 60.198C102.658 58.5273 103.078 57.2813 103.918 56.46C104.767 55.6387 105.943 55.228 107.446 55.228C108.949 55.228 110.125 55.6387 110.974 56.46C111.823 57.2813 112.248 58.5273 112.248 60.198C112.248 61.8687 111.823 63.1147 110.974 63.936C110.125 64.7573 108.949 65.168 107.446 65.168ZM107.446 64.034C108.155 64.034 108.767 63.908 109.28 63.656C109.793 63.404 110.185 63.0027 110.456 62.452C110.736 61.892 110.876 61.1593 110.876 60.254V60.198C110.876 59.274 110.736 58.532 110.456 57.972C110.176 57.412 109.779 57.006 109.266 56.754C108.753 56.4927 108.146 56.362 107.446 56.362C106.746 56.362 106.139 56.4927 105.626 56.754C105.122 57.006 104.73 57.412 104.45 57.972C104.179 58.532 104.039 59.274 104.03 60.198V60.254C104.03 61.1593 104.165 61.892 104.436 62.452C104.716 63.0027 105.113 63.404 105.626 63.656C106.139 63.908 106.746 64.034 107.446 64.034ZM114.002 65V55.396H120.806V56.558H115.332V59.61H120.302V60.772H115.332V65H114.002ZM122.561 65V55.396H129.365V56.558H123.891V59.61H128.861V60.772H123.891V65H122.561Z" fill="white"/>
<path d="M133.472 65.168C132.753 65.168 132.17 65.0653 131.722 64.86C131.283 64.6547 130.961 64.3887 130.756 64.062C130.55 63.726 130.448 63.376 130.448 63.012C130.448 62.9187 130.448 62.8487 130.448 62.802C130.457 62.7553 130.462 62.7227 130.462 62.704H131.68V62.844C131.68 63.152 131.764 63.404 131.932 63.6C132.1 63.7867 132.324 63.9267 132.604 64.02C132.884 64.1133 133.196 64.16 133.542 64.16C133.84 64.16 134.116 64.118 134.368 64.034C134.62 63.95 134.82 63.8287 134.97 63.67C135.119 63.5113 135.194 63.3107 135.194 63.068C135.194 62.7507 135.082 62.5033 134.858 62.326C134.643 62.1487 134.363 62.0087 134.018 61.906C133.672 61.8033 133.308 61.7053 132.926 61.612C132.543 61.5093 132.179 61.3833 131.834 61.234C131.488 61.0847 131.204 60.8793 130.98 60.618C130.765 60.3567 130.658 60.0067 130.658 59.568C130.658 59.1387 130.779 58.7653 131.022 58.448C131.264 58.1307 131.605 57.888 132.044 57.72C132.482 57.552 132.996 57.468 133.584 57.468C134.172 57.468 134.666 57.5613 135.068 57.748C135.469 57.9347 135.772 58.182 135.978 58.49C136.183 58.7887 136.286 59.12 136.286 59.484C136.286 59.5307 136.281 59.5867 136.272 59.652C136.272 59.708 136.272 59.7407 136.272 59.75H135.068V59.624C135.068 59.3347 134.951 59.0733 134.718 58.84C134.484 58.6067 134.06 58.49 133.444 58.49C133.024 58.49 132.706 58.546 132.492 58.658C132.277 58.7607 132.128 58.8913 132.044 59.05C131.969 59.2087 131.932 59.3533 131.932 59.484C131.932 59.7547 132.039 59.9647 132.254 60.114C132.478 60.2633 132.762 60.3847 133.108 60.478C133.453 60.5713 133.817 60.6647 134.2 60.758C134.582 60.8513 134.946 60.9773 135.292 61.136C135.637 61.2947 135.917 61.514 136.132 61.794C136.356 62.0647 136.468 62.4333 136.468 62.9C136.468 63.4227 136.337 63.852 136.076 64.188C135.814 64.524 135.455 64.7713 134.998 64.93C134.55 65.0887 134.041 65.168 133.472 65.168ZM137.952 65V54.878H139.184V58.462H139.282C139.543 58.126 139.87 57.8787 140.262 57.72C140.654 57.552 141.102 57.468 141.606 57.468C142.072 57.468 142.474 57.552 142.81 57.72C143.155 57.8787 143.421 58.1447 143.608 58.518C143.804 58.882 143.902 59.3673 143.902 59.974V65H142.67V60.058C142.67 59.4327 142.53 59.0173 142.25 58.812C141.97 58.5973 141.601 58.49 141.144 58.49C140.798 58.49 140.476 58.5787 140.178 58.756C139.879 58.924 139.636 59.1667 139.45 59.484C139.272 59.8013 139.184 60.1887 139.184 60.646V65H137.952ZM148.685 65.168C147.574 65.168 146.73 64.86 146.151 64.244C145.572 63.6187 145.283 62.6433 145.283 61.318C145.283 59.9927 145.572 59.022 146.151 58.406C146.73 57.7807 147.574 57.468 148.685 57.468C149.796 57.468 150.64 57.7807 151.219 58.406C151.798 59.022 152.087 59.9927 152.087 61.318C152.087 62.6433 151.798 63.6187 151.219 64.244C150.64 64.86 149.796 65.168 148.685 65.168ZM148.685 64.146C149.432 64.146 149.973 63.9313 150.309 63.502C150.645 63.0633 150.813 62.354 150.813 61.374V61.262C150.813 60.282 150.645 59.5773 150.309 59.148C149.973 58.7093 149.432 58.49 148.685 58.49C147.938 58.49 147.397 58.7093 147.061 59.148C146.725 59.5773 146.557 60.282 146.557 61.262V61.374C146.557 62.354 146.725 63.0633 147.061 63.502C147.397 63.9313 147.938 64.146 148.685 64.146ZM153.51 65V57.636H154.448L154.588 58.742H154.672C154.794 58.434 154.985 58.1447 155.246 57.874C155.517 57.6033 155.904 57.468 156.408 57.468C156.604 57.468 156.763 57.4867 156.884 57.524C157.006 57.5613 157.066 57.58 157.066 57.58V58.77H156.548C156.24 58.77 155.946 58.8307 155.666 58.952C155.396 59.0733 155.172 59.274 154.994 59.554C154.826 59.8247 154.742 60.1887 154.742 60.646V65H153.51ZM159.838 65.154C159.474 65.154 159.185 65.0793 158.97 64.93C158.765 64.7713 158.616 64.5753 158.522 64.342C158.429 64.1087 158.382 63.8613 158.382 63.6V58.658H157.486V57.636H158.396L158.662 55.592H159.614V57.636H160.86V58.658H159.614V63.488C159.614 63.9267 159.82 64.146 160.23 64.146H160.86V64.958C160.739 65.014 160.58 65.0607 160.384 65.098C160.188 65.1353 160.006 65.154 159.838 65.154ZM162.069 65V57.636H163.007L163.147 58.63H163.245C163.534 58.2193 163.894 57.9253 164.323 57.748C164.752 57.5613 165.219 57.468 165.723 57.468C166.19 57.468 166.596 57.552 166.941 57.72C167.286 57.8787 167.552 58.1447 167.739 58.518C167.926 58.882 168.019 59.3673 168.019 59.974V65H166.787V60.058C166.787 59.4327 166.647 59.0173 166.367 58.812C166.087 58.5973 165.718 58.49 165.261 58.49C164.916 58.49 164.594 58.5787 164.295 58.756C163.996 58.924 163.754 59.1667 163.567 59.484C163.39 59.8013 163.301 60.1887 163.301 60.646V65H162.069ZM172.97 65.168C171.785 65.168 170.903 64.86 170.324 64.244C169.745 63.6187 169.456 62.6433 169.456 61.318C169.456 59.9927 169.745 59.022 170.324 58.406C170.912 57.7807 171.794 57.468 172.97 57.468C174.006 57.468 174.795 57.7433 175.336 58.294C175.877 58.8447 176.148 59.7593 176.148 61.038V61.654H170.73C170.767 62.5033 170.963 63.1333 171.318 63.544C171.682 63.9453 172.233 64.146 172.97 64.146C173.325 64.146 173.651 64.09 173.95 63.978C174.258 63.866 174.501 63.6933 174.678 63.46C174.855 63.2173 174.944 62.8953 174.944 62.494H176.148C176.148 63.0913 176.003 63.5907 175.714 63.992C175.434 64.384 175.056 64.678 174.58 64.874C174.104 65.07 173.567 65.168 172.97 65.168ZM170.758 60.632H174.86C174.86 59.8573 174.687 59.3067 174.342 58.98C173.997 58.6533 173.539 58.49 172.97 58.49C172.279 58.49 171.757 58.658 171.402 58.994C171.047 59.3207 170.833 59.8667 170.758 60.632ZM177.627 65V57.636H178.565L178.705 58.742H178.789C178.911 58.434 179.102 58.1447 179.363 57.874C179.634 57.6033 180.021 57.468 180.525 57.468C180.721 57.468 180.88 57.4867 181.001 57.524C181.123 57.5613 181.183 57.58 181.183 57.58V58.77H180.665C180.357 58.77 180.063 58.8307 179.783 58.952C179.513 59.0733 179.289 59.274 179.111 59.554C178.943 59.8247 178.859 60.1887 178.859 60.646V65H177.627Z" fill="#101010"/>
</svg>
